<?xml version="1.0" encoding="UTF-8" ?>
<svg version="1.1" width="32" height="32" xmlns="http://www.w3.org/2000/svg" shape-rendering="crispEdges">
<rect x="19" y="7" width="1" height="1" fill="#2B2B2B" />
<rect x="20" y="7" width="1" height="1" fill="#2B2B2B" />
<rect x="21" y="7" width="1" height="1" fill="#2B2B2B" />
<rect x="22" y="7" width="1" height="1" fill="#2B2B2B" />
<rect x="23" y="7" width="1" height="1" fill="#2B2B2B" />
<rect x="24" y="7" width="1" height="1" fill="#2B2B2B" />
<rect x="25" y="7" width="1" height="1" fill="#2B2B2B" />
<rect x="0" y="8" width="1" height="1" fill="#404040" />
<rect x="1" y="8" width="1" height="1" fill="#404040" />
<rect x="2" y="8" width="1" height="1" fill="#404040" />
<rect x="3" y="8" width="1" height="1" fill="#404040" />
<rect x="4" y="8" width="1" height="1" fill="#404040" />
<rect x="5" y="8" width="1" height="1" fill="#404040" />
<rect x="17" y="8" width="1" height="1" fill="#2B2B2B" />
<rect x="18" y="8" width="1" height="1" fill="#2B2B2B" />
<rect x="19" y="8" width="1" height="1" fill="#A28E4F" />
<rect x="20" y="8" width="1" height="1" fill="#BFA953" />
<rect x="21" y="8" width="1" height="1" fill="#B8A44E" />
<rect x="22" y="8" width="1" height="1" fill="#A8964E" />
<rect x="23" y="8" width="1" height="1" fill="#BBA961" />
<rect x="24" y="8" width="1" height="1" fill="#FDE992" />
<rect x="25" y="8" width="1" height="1" fill="#EBE1B0" />
<rect x="26" y="8" width="1" height="1" fill="#2B2B2B" />
<rect x="0" y="9" width="1" height="1" fill="#404040" />
<rect x="1" y="9" width="1" height="1" fill="#404040" />
<rect x="2" y="9" width="1" height="1" fill="#404040" />
<rect x="3" y="9" width="1" height="1" fill="#404040" />
<rect x="4" y="9" width="1" height="1" fill="#404040" />
<rect x="5" y="9" width="1" height="1" fill="#404040" />
<rect x="6" y="9" width="1" height="1" fill="#404040" />
<rect x="7" y="9" width="1" height="1" fill="#404040" />
<rect x="8" y="9" width="1" height="1" fill="#404040" />
<rect x="9" y="9" width="1" height="1" fill="#404040" />
<rect x="10" y="9" width="1" height="1" fill="#404040" />
<rect x="11" y="9" width="1" height="1" fill="#404040" />
<rect x="12" y="9" width="1" height="1" fill="#404040" />
<rect x="13" y="9" width="1" height="1" fill="#404040" />
<rect x="14" y="9" width="1" height="1" fill="#404040" />
<rect x="15" y="9" width="1" height="1" fill="#404040" />
<rect x="16" y="9" width="1" height="1" fill="#2B2B2B" />
<rect x="17" y="9" width="1" height="1" fill="#C4AF56" />
<rect x="18" y="9" width="1" height="1" fill="#B29C51" />
<rect x="19" y="9" width="1" height="1" fill="#C1AC51" />
<rect x="20" y="9" width="1" height="1" fill="#9C843C" />
<rect x="21" y="9" width="1" height="1" fill="#C7B15C" />
<rect x="22" y="9" width="1" height="1" fill="#97853D" />
<rect x="23" y="9" width="1" height="1" fill="#998843" />
<rect x="24" y="9" width="1" height="1" fill="#9B8B40" />
<rect x="25" y="9" width="1" height="1" fill="#A8964C" />
<rect x="26" y="9" width="1" height="1" fill="#C9BF6A" />
<rect x="27" y="9" width="1" height="1" fill="#2B2B2B" />
<rect x="0" y="10" width="1" height="1" fill="#404040" />
<rect x="1" y="10" width="1" height="1" fill="#404040" />
<rect x="2" y="10" width="1" height="1" fill="#404040" />
<rect x="3" y="10" width="1" height="1" fill="#404040" />
<rect x="4" y="10" width="1" height="1" fill="#404040" />
<rect x="5" y="10" width="1" height="1" fill="#404040" />
<rect x="6" y="10" width="1" height="1" fill="#404040" />
<rect x="7" y="10" width="1" height="1" fill="#404040" />
<rect x="8" y="10" width="1" height="1" fill="#404040" />
<rect x="9" y="10" width="1" height="1" fill="#404040" />
<rect x="10" y="10" width="1" height="1" fill="#404040" />
<rect x="11" y="10" width="1" height="1" fill="#404040" />
<rect x="12" y="10" width="1" height="1" fill="#404040" />
<rect x="13" y="10" width="1" height="1" fill="#404040" />
<rect x="14" y="10" width="1" height="1" fill="#404040" />
<rect x="15" y="10" width="1" height="1" fill="#2B2B2B" />
<rect x="16" y="10" width="1" height="1" fill="#E3D081" />
<rect x="17" y="10" width="1" height="1" fill="#9B8A44" />
<rect x="18" y="10" width="1" height="1" fill="#B09A47" />
<rect x="19" y="10" width="1" height="1" fill="#CEB656" />
<rect x="20" y="10" width="1" height="1" fill="#AF984C" />
<rect x="21" y="10" width="1" height="1" fill="#AB9957" />
<rect x="22" y="10" width="1" height="1" fill="#CAB566" />
<rect x="23" y="10" width="1" height="1" fill="#A28E45" />
<rect x="24" y="10" width="1" height="1" fill="#B2A04E" />
<rect x="25" y="10" width="1" height="1" fill="#B09C45" />
<rect x="26" y="10" width="1" height="1" fill="#CBB550" />
<rect x="27" y="10" width="1" height="1" fill="#BFAB4A" />
<rect x="28" y="10" width="1" height="1" fill="#2B2B2B" />
<rect x="0" y="11" width="1" height="1" fill="#404040" />
<rect x="1" y="11" width="1" height="1" fill="#404040" />
<rect x="2" y="11" width="1" height="1" fill="#404040" />
<rect x="3" y="11" width="1" height="1" fill="#404040" />
<rect x="4" y="11" width="1" height="1" fill="#404040" />
<rect x="5" y="11" width="1" height="1" fill="#404040" />
<rect x="6" y="11" width="1" height="1" fill="#404040" />
<rect x="7" y="11" width="1" height="1" fill="#404040" />
<rect x="8" y="11" width="1" height="1" fill="#404040" />
<rect x="9" y="11" width="1" height="1" fill="#404040" />
<rect x="10" y="11" width="1" height="1" fill="#404040" />
<rect x="11" y="11" width="1" height="1" fill="#404040" />
<rect x="12" y="11" width="1" height="1" fill="#404040" />
<rect x="13" y="11" width="1" height="1" fill="#404040" />
<rect x="14" y="11" width="1" height="1" fill="#2B2B2B" />
<rect x="15" y="11" width="1" height="1" fill="#C6AF6C" />
<rect x="16" y="11" width="1" height="1" fill="#9F8940" />
<rect x="17" y="11" width="1" height="1" fill="#9E893A" />
<rect x="18" y="11" width="1" height="1" fill="#C2AD54" />
<rect x="19" y="11" width="1" height="1" fill="#BEAD5B" />
<rect x="20" y="11" width="1" height="1" fill="#B19E51" />
<rect x="21" y="11" width="1" height="1" fill="#251E0E" />
<rect x="22" y="11" width="1" height="1" fill="#2F2609" />
<rect x="23" y="11" width="1" height="1" fill="#A38E4B" />
<rect x="24" y="11" width="1" height="1" fill="#B2A350" />
<rect x="25" y="11" width="1" height="1" fill="#C4AA53" />
<rect x="26" y="11" width="1" height="1" fill="#B7A14B" />
<rect x="27" y="11" width="1" height="1" fill="#DCC46A" />
<rect x="28" y="11" width="1" height="1" fill="#2B2B2B" />
<rect x="0" y="12" width="1" height="1" fill="#2B2B2B" />
<rect x="1" y="12" width="1" height="1" fill="#2B2B2B" />
<rect x="2" y="12" width="1" height="1" fill="#2B2B2B" />
<rect x="3" y="12" width="1" height="1" fill="#2B2B2B" />
<rect x="4" y="12" width="1" height="1" fill="#2B2B2B" />
<rect x="5" y="12" width="1" height="1" fill="#2B2B2B" />
<rect x="6" y="12" width="1" height="1" fill="#2B2B2B" />
<rect x="7" y="12" width="1" height="1" fill="#2B2B2B" />
<rect x="8" y="12" width="1" height="1" fill="#2B2B2B" />
<rect x="9" y="12" width="1" height="1" fill="#2B2B2B" />
<rect x="10" y="12" width="1" height="1" fill="#2B2B2B" />
<rect x="11" y="12" width="1" height="1" fill="#2B2B2B" />
<rect x="12" y="12" width="1" height="1" fill="#2B2B2B" />
<rect x="13" y="12" width="1" height="1" fill="#2B2B2B" />
<rect x="14" y="12" width="1" height="1" fill="#2B2B2B" />
<rect x="15" y="12" width="1" height="1" fill="#AA923A" />
<rect x="16" y="12" width="1" height="1" fill="#A48F3E" />
<rect x="17" y="12" width="1" height="1" fill="#9F8838" />
<rect x="18" y="12" width="1" height="1" fill="#B6A651" />
<rect x="19" y="12" width="1" height="1" fill="#B7A559" />
<rect x="20" y="12" width="1" height="1" fill="#A38F48" />
<rect x="21" y="12" width="1" height="1" fill="#624910" />
<rect x="22" y="12" width="1" height="1" fill="#75612E" />
<rect x="23" y="12" width="1" height="1" fill="#E0CB70" />
<rect x="24" y="12" width="1" height="1" fill="#C7B465" />
<rect x="25" y="12" width="1" height="1" fill="#DDC563" />
<rect x="26" y="12" width="1" height="1" fill="#DDC563" />
<rect x="27" y="12" width="1" height="1" fill="#D3BB59" />
<rect x="28" y="12" width="1" height="1" fill="#C3B25A" />
<rect x="29" y="12" width="1" height="1" fill="#2B2B2B" />
<rect x="0" y="13" width="1" height="1" fill="#2B2B2B" />
<rect x="1" y="13" width="1" height="1" fill="#2B2B2B" />
<rect x="2" y="13" width="1" height="1" fill="#2B2B2B" />
<rect x="3" y="13" width="1" height="1" fill="#2B2B2B" />
<rect x="4" y="13" width="1" height="1" fill="#2B2B2B" />
<rect x="5" y="13" width="1" height="1" fill="#2B2B2B" />
<rect x="6" y="13" width="1" height="1" fill="#2B2B2B" />
<rect x="7" y="13" width="1" height="1" fill="#2B2B2B" />
<rect x="8" y="13" width="1" height="1" fill="#2B2B2B" />
<rect x="9" y="13" width="1" height="1" fill="#2B2B2B" />
<rect x="10" y="13" width="1" height="1" fill="#2B2B2B" />
<rect x="11" y="13" width="1" height="1" fill="#2B2B2B" />
<rect x="12" y="13" width="1" height="1" fill="#2B2B2B" />
<rect x="13" y="13" width="1" height="1" fill="#2B2B2B" />
<rect x="14" y="13" width="1" height="1" fill="#2B2B2B" />
<rect x="15" y="13" width="1" height="1" fill="#A38B41" />
<rect x="16" y="13" width="1" height="1" fill="#A8903A" />
<rect x="17" y="13" width="1" height="1" fill="#C6AD50" />
<rect x="18" y="13" width="1" height="1" fill="#988239" />
<rect x="19" y="13" width="1" height="1" fill="#B39D51" />
<rect x="20" y="13" width="1" height="1" fill="#AC8D3A" />
<rect x="21" y="13" width="1" height="1" fill="#856A23" />
<rect x="22" y="13" width="1" height="1" fill="#6D5817" />
<rect x="23" y="13" width="1" height="1" fill="#AF9445" />
<rect x="24" y="13" width="1" height="1" fill="#DBC56F" />
<rect x="25" y="13" width="1" height="1" fill="#D0B969" />
<rect x="26" y="13" width="1" height="1" fill="#CBB758" />
<rect x="27" y="13" width="1" height="1" fill="#CCB95D" />
<rect x="28" y="13" width="1" height="1" fill="#DDC96A" />
<rect x="29" y="13" width="1" height="1" fill="#2B2B2B" />
<rect x="0" y="14" width="1" height="1" fill="#2B2B2B" />
<rect x="1" y="14" width="1" height="1" fill="#2B2B2B" />
<rect x="2" y="14" width="1" height="1" fill="#2B2B2B" />
<rect x="3" y="14" width="1" height="1" fill="#2B2B2B" />
<rect x="4" y="14" width="1" height="1" fill="#2B2B2B" />
<rect x="5" y="14" width="1" height="1" fill="#2B2B2B" />
<rect x="6" y="14" width="1" height="1" fill="#2B2B2B" />
<rect x="7" y="14" width="1" height="1" fill="#2B2B2B" />
<rect x="8" y="14" width="1" height="1" fill="#2B2B2B" />
<rect x="9" y="14" width="1" height="1" fill="#2B2B2B" />
<rect x="10" y="14" width="1" height="1" fill="#2B2B2B" />
<rect x="11" y="14" width="1" height="1" fill="#2B2B2B" />
<rect x="12" y="14" width="1" height="1" fill="#2B2B2B" />
<rect x="13" y="14" width="1" height="1" fill="#2B2B2B" />
<rect x="14" y="14" width="1" height="1" fill="#2B2B2B" />
<rect x="15" y="14" width="1" height="1" fill="#9F8A37" />
<rect x="16" y="14" width="1" height="1" fill="#DBC359" />
<rect x="17" y="14" width="1" height="1" fill="#C2AB4D" />
<rect x="18" y="14" width="1" height="1" fill="#2D260C" />
<rect x="19" y="14" width="1" height="1" fill="#30260D" />
<rect x="20" y="14" width="1" height="1" fill="#BCA24D" />
<rect x="21" y="14" width="1" height="1" fill="#8D7632" />
<rect x="22" y="14" width="1" height="1" fill="#86753D" />
<rect x="23" y="14" width="1" height="1" fill="#A1833A" />
<rect x="24" y="14" width="1" height="1" fill="#625123" />
<rect x="25" y="14" width="1" height="1" fill="#41330E" />
<rect x="26" y="14" width="1" height="1" fill="#D4BB79" />
<rect x="27" y="14" width="1" height="1" fill="#D8C465" />
<rect x="28" y="14" width="1" height="1" fill="#DDC86D" />
<rect x="29" y="14" width="1" height="1" fill="#2B2B2B" />
<rect x="0" y="15" width="1" height="1" fill="#2B2B2B" />
<rect x="1" y="15" width="1" height="1" fill="#2B2B2B" />
<rect x="2" y="15" width="1" height="1" fill="#2B2B2B" />
<rect x="3" y="15" width="1" height="1" fill="#2B2B2B" />
<rect x="4" y="15" width="1" height="1" fill="#2B2B2B" />
<rect x="5" y="15" width="1" height="1" fill="#2B2B2B" />
<rect x="6" y="15" width="1" height="1" fill="#2B2B2B" />
<rect x="7" y="15" width="1" height="1" fill="#2B2B2B" />
<rect x="8" y="15" width="1" height="1" fill="#2B2B2B" />
<rect x="9" y="15" width="1" height="1" fill="#2B2B2B" />
<rect x="10" y="15" width="1" height="1" fill="#2B2B2B" />
<rect x="11" y="15" width="1" height="1" fill="#2B2B2B" />
<rect x="12" y="15" width="1" height="1" fill="#2B2B2B" />
<rect x="13" y="15" width="1" height="1" fill="#2B2B2B" />
<rect x="14" y="15" width="1" height="1" fill="#2B2B2B" />
<rect x="15" y="15" width="1" height="1" fill="#A89550" />
<rect x="16" y="15" width="1" height="1" fill="#F5D564" />
<rect x="17" y="15" width="1" height="1" fill="#FFF5A0" />
<rect x="18" y="15" width="1" height="1" fill="#473A0E" />
<rect x="19" y="15" width="1" height="1" fill="#231D07" />
<rect x="20" y="15" width="1" height="1" fill="#413310" />
<rect x="21" y="15" width="1" height="1" fill="#8C752F" />
<rect x="22" y="15" width="1" height="1" fill="#D5C168" />
<rect x="23" y="15" width="1" height="1" fill="#3F310E" />
<rect x="24" y="15" width="1" height="1" fill="#4B3D10" />
<rect x="25" y="15" width="1" height="1" fill="#372E0D" />
<rect x="26" y="15" width="1" height="1" fill="#ECD788" />
<rect x="27" y="15" width="1" height="1" fill="#D6C26B" />
<rect x="28" y="15" width="1" height="1" fill="#CCB861" />
<rect x="29" y="15" width="1" height="1" fill="#2B2B2B" />
<rect x="0" y="16" width="1" height="1" fill="#242424" />
<rect x="1" y="16" width="1" height="1" fill="#242424" />
<rect x="2" y="16" width="1" height="1" fill="#242424" />
<rect x="3" y="16" width="1" height="1" fill="#242424" />
<rect x="4" y="16" width="1" height="1" fill="#242424" />
<rect x="5" y="16" width="1" height="1" fill="#242424" />
<rect x="6" y="16" width="1" height="1" fill="#242424" />
<rect x="7" y="16" width="1" height="1" fill="#242424" />
<rect x="8" y="16" width="1" height="1" fill="#242424" />
<rect x="9" y="16" width="1" height="1" fill="#242424" />
<rect x="10" y="16" width="1" height="1" fill="#242424" />
<rect x="11" y="16" width="1" height="1" fill="#242424" />
<rect x="12" y="16" width="1" height="1" fill="#242424" />
<rect x="13" y="16" width="1" height="1" fill="#242424" />
<rect x="14" y="16" width="1" height="1" fill="#242424" />
<rect x="15" y="16" width="1" height="1" fill="#D9BB4D" />
<rect x="16" y="16" width="1" height="1" fill="#DDC257" />
<rect x="17" y="16" width="1" height="1" fill="#EFD775" />
<rect x="18" y="16" width="1" height="1" fill="#DCC869" />
<rect x="19" y="16" width="1" height="1" fill="#D7BF65" />
<rect x="20" y="16" width="1" height="1" fill="#7B6728" />
<rect x="21" y="16" width="1" height="1" fill="#544210" />
<rect x="22" y="16" width="1" height="1" fill="#E6D192" />
<rect x="23" y="16" width="1" height="1" fill="#705916" />
<rect x="24" y="16" width="1" height="1" fill="#DBC16C" />
<rect x="25" y="16" width="1" height="1" fill="#D5C065" />
<rect x="26" y="16" width="1" height="1" fill="#C4AD5F" />
<rect x="27" y="16" width="1" height="1" fill="#A99852" />
<rect x="28" y="16" width="1" height="1" fill="#BCAA58" />
<rect x="29" y="16" width="1" height="1" fill="#2B2B2B" />
<rect x="0" y="17" width="1" height="1" fill="#242424" />
<rect x="1" y="17" width="1" height="1" fill="#242424" />
<rect x="2" y="17" width="1" height="1" fill="#242424" />
<rect x="3" y="17" width="1" height="1" fill="#242424" />
<rect x="4" y="17" width="1" height="1" fill="#242424" />
<rect x="5" y="17" width="1" height="1" fill="#242424" />
<rect x="6" y="17" width="1" height="1" fill="#242424" />
<rect x="7" y="17" width="1" height="1" fill="#242424" />
<rect x="8" y="17" width="1" height="1" fill="#242424" />
<rect x="9" y="17" width="1" height="1" fill="#242424" />
<rect x="10" y="17" width="1" height="1" fill="#242424" />
<rect x="11" y="17" width="1" height="1" fill="#242424" />
<rect x="12" y="17" width="1" height="1" fill="#242424" />
<rect x="13" y="17" width="1" height="1" fill="#242424" />
<rect x="14" y="17" width="1" height="1" fill="#242424" />
<rect x="15" y="17" width="1" height="1" fill="#CEB74F" />
<rect x="16" y="17" width="1" height="1" fill="#DEC257" />
<rect x="17" y="17" width="1" height="1" fill="#E4CA69" />
<rect x="18" y="17" width="1" height="1" fill="#E4D175" />
<rect x="19" y="17" width="1" height="1" fill="#C5B05D" />
<rect x="20" y="17" width="1" height="1" fill="#CBB560" />
<rect x="21" y="17" width="1" height="1" fill="#47360B" />
<rect x="22" y="17" width="1" height="1" fill="#594715" />
<rect x="23" y="17" width="1" height="1" fill="#CCB357" />
<rect x="24" y="17" width="1" height="1" fill="#CFB964" />
<rect x="25" y="17" width="1" height="1" fill="#C6B15E" />
<rect x="26" y="17" width="1" height="1" fill="#BAA661" />
<rect x="27" y="17" width="1" height="1" fill="#AE984C" />
<rect x="28" y="17" width="1" height="1" fill="#7E6F48" />
<rect x="29" y="17" width="1" height="1" fill="#2B2B2B" />
<rect x="0" y="18" width="1" height="1" fill="#242424" />
<rect x="1" y="18" width="1" height="1" fill="#242424" />
<rect x="2" y="18" width="1" height="1" fill="#242424" />
<rect x="3" y="18" width="1" height="1" fill="#242424" />
<rect x="4" y="18" width="1" height="1" fill="#242424" />
<rect x="5" y="18" width="1" height="1" fill="#242424" />
<rect x="6" y="18" width="1" height="1" fill="#242424" />
<rect x="7" y="18" width="1" height="1" fill="#242424" />
<rect x="8" y="18" width="1" height="1" fill="#242424" />
<rect x="9" y="18" width="1" height="1" fill="#242424" />
<rect x="10" y="18" width="1" height="1" fill="#242424" />
<rect x="11" y="18" width="1" height="1" fill="#242424" />
<rect x="12" y="18" width="1" height="1" fill="#242424" />
<rect x="13" y="18" width="1" height="1" fill="#242424" />
<rect x="14" y="18" width="1" height="1" fill="#242424" />
<rect x="15" y="18" width="1" height="1" fill="#C8BB99" />
<rect x="16" y="18" width="1" height="1" fill="#E7CF6B" />
<rect x="17" y="18" width="1" height="1" fill="#DEC769" />
<rect x="18" y="18" width="1" height="1" fill="#D2BB5B" />
<rect x="19" y="18" width="1" height="1" fill="#D0BA67" />
<rect x="20" y="18" width="1" height="1" fill="#BFA954" />
<rect x="21" y="18" width="1" height="1" fill="#433510" />
<rect x="22" y="18" width="1" height="1" fill="#33290E" />
<rect x="23" y="18" width="1" height="1" fill="#C5AF59" />
<rect x="24" y="18" width="1" height="1" fill="#BDA75B" />
<rect x="25" y="18" width="1" height="1" fill="#E7D17B" />
<rect x="26" y="18" width="1" height="1" fill="#A89350" />
<rect x="27" y="18" width="1" height="1" fill="#B19C4D" />
<rect x="28" y="18" width="1" height="1" fill="#B8A966" />
<rect x="29" y="18" width="1" height="1" fill="#2B2B2B" />
<rect x="0" y="19" width="1" height="1" fill="#141414" />
<rect x="1" y="19" width="1" height="1" fill="#141414" />
<rect x="2" y="19" width="1" height="1" fill="#141414" />
<rect x="3" y="19" width="1" height="1" fill="#141414" />
<rect x="4" y="19" width="1" height="1" fill="#141414" />
<rect x="5" y="19" width="1" height="1" fill="#141414" />
<rect x="6" y="19" width="1" height="1" fill="#141414" />
<rect x="7" y="19" width="1" height="1" fill="#141414" />
<rect x="8" y="19" width="1" height="1" fill="#141414" />
<rect x="9" y="19" width="1" height="1" fill="#141414" />
<rect x="10" y="19" width="1" height="1" fill="#141414" />
<rect x="11" y="19" width="1" height="1" fill="#141414" />
<rect x="12" y="19" width="1" height="1" fill="#141414" />
<rect x="13" y="19" width="1" height="1" fill="#141414" />
<rect x="14" y="19" width="1" height="1" fill="#141414" />
<rect x="15" y="19" width="1" height="1" fill="#E6CD89" />
<rect x="16" y="19" width="1" height="1" fill="#CEB35A" />
<rect x="17" y="19" width="1" height="1" fill="#C8B058" />
<rect x="18" y="19" width="1" height="1" fill="#CBB65B" />
<rect x="19" y="19" width="1" height="1" fill="#C7AE5A" />
<rect x="20" y="19" width="1" height="1" fill="#CCB660" />
<rect x="21" y="19" width="1" height="1" fill="#816D26" />
<rect x="22" y="19" width="1" height="1" fill="#FCFBC3" />
<rect x="23" y="19" width="1" height="1" fill="#A7934C" />
<rect x="24" y="19" width="1" height="1" fill="#968E5F" />
<rect x="25" y="19" width="1" height="1" fill="#A89548" />
<rect x="26" y="19" width="1" height="1" fill="#B6A054" />
<rect x="27" y="19" width="1" height="1" fill="#BFA85A" />
<rect x="28" y="19" width="1" height="1" fill="#2B2B2B" />
<rect x="0" y="20" width="1" height="1" fill="#141414" />
<rect x="1" y="20" width="1" height="1" fill="#141414" />
<rect x="2" y="20" width="1" height="1" fill="#141414" />
<rect x="3" y="20" width="1" height="1" fill="#141414" />
<rect x="4" y="20" width="1" height="1" fill="#141414" />
<rect x="5" y="20" width="1" height="1" fill="#141414" />
<rect x="6" y="20" width="1" height="1" fill="#141414" />
<rect x="7" y="20" width="1" height="1" fill="#141414" />
<rect x="8" y="20" width="1" height="1" fill="#141414" />
<rect x="9" y="20" width="1" height="1" fill="#141414" />
<rect x="10" y="20" width="1" height="1" fill="#141414" />
<rect x="11" y="20" width="1" height="1" fill="#141414" />
<rect x="12" y="20" width="1" height="1" fill="#141414" />
<rect x="13" y="20" width="1" height="1" fill="#141414" />
<rect x="14" y="20" width="1" height="1" fill="#141414" />
<rect x="15" y="20" width="1" height="1" fill="#141414" />
<rect x="16" y="20" width="1" height="1" fill="#E4C884" />
<rect x="17" y="20" width="1" height="1" fill="#F0D876" />
<rect x="18" y="20" width="1" height="1" fill="#B29D4C" />
<rect x="19" y="20" width="1" height="1" fill="#CBB65B" />
<rect x="20" y="20" width="1" height="1" fill="#C2AC57" />
<rect x="21" y="20" width="1" height="1" fill="#E3CC6E" />
<rect x="22" y="20" width="1" height="1" fill="#DEC96C" />
<rect x="23" y="20" width="1" height="1" fill="#CBB85A" />
<rect x="24" y="20" width="1" height="1" fill="#C3AE53" />
<rect x="25" y="20" width="1" height="1" fill="#C4AF56" />
<rect x="26" y="20" width="1" height="1" fill="#C5B158" />
<rect x="27" y="20" width="1" height="1" fill="#2B2B2B" />
<rect x="0" y="21" width="1" height="1" fill="#141414" />
<rect x="1" y="21" width="1" height="1" fill="#141414" />
<rect x="2" y="21" width="1" height="1" fill="#141414" />
<rect x="3" y="21" width="1" height="1" fill="#141414" />
<rect x="4" y="21" width="1" height="1" fill="#141414" />
<rect x="5" y="21" width="1" height="1" fill="#141414" />
<rect x="6" y="21" width="1" height="1" fill="#141414" />
<rect x="7" y="21" width="1" height="1" fill="#141414" />
<rect x="8" y="21" width="1" height="1" fill="#141414" />
<rect x="9" y="21" width="1" height="1" fill="#141414" />
<rect x="10" y="21" width="1" height="1" fill="#141414" />
<rect x="11" y="21" width="1" height="1" fill="#141414" />
<rect x="12" y="21" width="1" height="1" fill="#141414" />
<rect x="13" y="21" width="1" height="1" fill="#141414" />
<rect x="14" y="21" width="1" height="1" fill="#141414" />
<rect x="15" y="21" width="1" height="1" fill="#141414" />
<rect x="16" y="21" width="1" height="1" fill="#141414" />
<rect x="17" y="21" width="1" height="1" fill="#E2C37F" />
<rect x="18" y="21" width="1" height="1" fill="#B59F6E" />
<rect x="19" y="21" width="1" height="1" fill="#DFC878" />
<rect x="20" y="21" width="1" height="1" fill="#C0AA54" />
<rect x="21" y="21" width="1" height="1" fill="#C5B45A" />
<rect x="22" y="21" width="1" height="1" fill="#CEBC68" />
<rect x="23" y="21" width="1" height="1" fill="#CAB660" />
<rect x="24" y="21" width="1" height="1" fill="#CDB962" />
<rect x="25" y="21" width="1" height="1" fill="#C8BE81" />
<rect x="26" y="21" width="1" height="1" fill="#2B2B2B" />
<rect x="0" y="22" width="1" height="1" fill="#141414" />
<rect x="1" y="22" width="1" height="1" fill="#141414" />
<rect x="2" y="22" width="1" height="1" fill="#141414" />
<rect x="3" y="22" width="1" height="1" fill="#141414" />
<rect x="4" y="22" width="1" height="1" fill="#141414" />
<rect x="5" y="22" width="1" height="1" fill="#141414" />
<rect x="6" y="22" width="1" height="1" fill="#141414" />
<rect x="7" y="22" width="1" height="1" fill="#141414" />
<rect x="8" y="22" width="1" height="1" fill="#141414" />
<rect x="9" y="22" width="1" height="1" fill="#141414" />
<rect x="10" y="22" width="1" height="1" fill="#141414" />
<rect x="11" y="22" width="1" height="1" fill="#141414" />
<rect x="12" y="22" width="1" height="1" fill="#141414" />
<rect x="13" y="22" width="1" height="1" fill="#141414" />
<rect x="14" y="22" width="1" height="1" fill="#141414" />
<rect x="15" y="22" width="1" height="1" fill="#141414" />
<rect x="16" y="22" width="1" height="1" fill="#141414" />
<rect x="17" y="22" width="1" height="1" fill="#141414" />
<rect x="18" y="22" width="1" height="1" fill="#141414" />
<rect x="19" y="22" width="1" height="1" fill="#DEBC78" />
<rect x="20" y="22" width="1" height="1" fill="#DDB975" />
<rect x="21" y="22" width="1" height="1" fill="#DCB773" />
<rect x="22" y="22" width="1" height="1" fill="#DBB470" />
<rect x="23" y="22" width="1" height="1" fill="#DAB26E" />
<rect x="24" y="22" width="1" height="1" fill="#2B2B2B" />
<rect x="25" y="22" width="1" height="1" fill="#2B2B2B" />
<rect x="0" y="23" width="1" height="1" fill="#141414" />
<rect x="1" y="23" width="1" height="1" fill="#141414" />
<rect x="2" y="23" width="1" height="1" fill="#141414" />
<rect x="3" y="23" width="1" height="1" fill="#141414" />
<rect x="4" y="23" width="1" height="1" fill="#141414" />
<rect x="5" y="23" width="1" height="1" fill="#141414" />
<rect x="19" y="23" width="1" height="1" fill="#2B2B2B" />
<rect x="20" y="23" width="1" height="1" fill="#2B2B2B" />
<rect x="21" y="23" width="1" height="1" fill="#2B2B2B" />
<rect x="22" y="23" width="1" height="1" fill="#2B2B2B" />
<rect x="23" y="23" width="1" height="1" fill="#2B2B2B" />
</svg>