<?xml version="1.0" encoding="UTF-8" ?>
<svg version="1.1" width="64" height="64" xmlns="http://www.w3.org/2000/svg" shape-rendering="crispEdges">
<rect x="28" y="10" width="2" height="2" fill="#203440" />
<rect x="30" y="10" width="2" height="2" fill="#6F7F8F" />
<rect x="34" y="10" width="2" height="2" fill="#6F7F8F" />
<rect x="36" y="10" width="2" height="2" fill="#203440" />
<rect x="28" y="12" width="2" height="2" fill="#203440" />
<rect x="30" y="12" width="2" height="2" fill="#AFBBC6" />
<rect x="32" y="12" width="2" height="2" fill="#203440" />
<rect x="34" y="12" width="2" height="2" fill="#AFBBC6" />
<rect x="36" y="12" width="2" height="2" fill="#203440" />
<rect x="24" y="14" width="2" height="2" fill="#203440" />
<rect x="26" y="14" width="2" height="2" fill="#203440" />
<rect x="28" y="14" width="2" height="2" fill="#203440" />
<rect x="30" y="14" width="2" height="2" fill="#475766" />
<rect x="32" y="14" width="2" height="2" fill="#203440" />
<rect x="34" y="14" width="2" height="2" fill="#475766" />
<rect x="36" y="14" width="2" height="2" fill="#203440" />
<rect x="38" y="14" width="2" height="2" fill="#203440" />
<rect x="40" y="14" width="2" height="2" fill="#1A102E" />
<rect x="22" y="16" width="2" height="2" fill="#203440" />
<rect x="24" y="16" width="2" height="2" fill="#AFBBC6" />
<rect x="26" y="16" width="2" height="2" fill="#6F7F8F" />
<rect x="28" y="16" width="2" height="2" fill="#6F7F8F" />
<rect x="30" y="16" width="2" height="2" fill="#6F7F8F" />
<rect x="32" y="16" width="2" height="2" fill="#6F7F8F" />
<rect x="34" y="16" width="2" height="2" fill="#6F7F8F" />
<rect x="36" y="16" width="2" height="2" fill="#6F7F8F" />
<rect x="38" y="16" width="2" height="2" fill="#6F7F8F" />
<rect x="40" y="16" width="2" height="2" fill="#475766" />
<rect x="42" y="16" width="2" height="2" fill="#1A102E" />
<rect x="22" y="18" width="2" height="2" fill="#1A102E" />
<rect x="24" y="18" width="2" height="2" fill="#475766" />
<rect x="26" y="18" width="2" height="2" fill="#203440" />
<rect x="28" y="18" width="2" height="2" fill="#203440" />
<rect x="30" y="18" width="2" height="2" fill="#203440" />
<rect x="32" y="18" width="2" height="2" fill="#203440" />
<rect x="34" y="18" width="2" height="2" fill="#203440" />
<rect x="36" y="18" width="2" height="2" fill="#203440" />
<rect x="38" y="18" width="2" height="2" fill="#203440" />
<rect x="40" y="18" width="2" height="2" fill="#203440" />
<rect x="42" y="18" width="2" height="2" fill="#1A102E" />
<rect x="22" y="20" width="2" height="2" fill="#72452A" />
<rect x="24" y="20" width="2" height="2" fill="#DEB63D" />
<rect x="26" y="20" width="2" height="2" fill="#EADB83" />
<rect x="28" y="20" width="2" height="2" fill="#EADB83" />
<rect x="30" y="20" width="2" height="2" fill="#EADB83" />
<rect x="32" y="20" width="2" height="2" fill="#EADB83" />
<rect x="34" y="20" width="2" height="2" fill="#EADB83" />
<rect x="36" y="20" width="2" height="2" fill="#EADB83" />
<rect x="38" y="20" width="2" height="2" fill="#EADB83" />
<rect x="40" y="20" width="2" height="2" fill="#DEB63D" />
<rect x="42" y="20" width="2" height="2" fill="#72452A" />
<rect x="22" y="22" width="2" height="2" fill="#72452A" />
<rect x="24" y="22" width="2" height="2" fill="#EADB83" />
<rect x="26" y="22" width="2" height="2" fill="#72452A" />
<rect x="28" y="22" width="2" height="2" fill="#422623" />
<rect x="30" y="22" width="2" height="2" fill="#422623" />
<rect x="32" y="22" width="2" height="2" fill="#422623" />
<rect x="34" y="22" width="2" height="2" fill="#422623" />
<rect x="36" y="22" width="2" height="2" fill="#422623" />
<rect x="38" y="22" width="2" height="2" fill="#72452A" />
<rect x="40" y="22" width="2" height="2" fill="#EADB83" />
<rect x="42" y="22" width="2" height="2" fill="#72452A" />
<rect x="22" y="24" width="2" height="2" fill="#72452A" />
<rect x="24" y="24" width="2" height="2" fill="#DEB63D" />
<rect x="26" y="24" width="2" height="2" fill="#422623" />
<rect x="28" y="24" width="2" height="2" fill="#1FCA30" />
<rect x="30" y="24" width="2" height="2" fill="#34A317" />
<rect x="32" y="24" width="2" height="2" fill="#34A317" />
<rect x="34" y="24" width="2" height="2" fill="#34A317" />
<rect x="36" y="24" width="2" height="2" fill="#1FCA30" />
<rect x="38" y="24" width="2" height="2" fill="#422623" />
<rect x="40" y="24" width="2" height="2" fill="#DEB63D" />
<rect x="42" y="24" width="2" height="2" fill="#72452A" />
<rect x="22" y="26" width="2" height="2" fill="#72452A" />
<rect x="24" y="26" width="2" height="2" fill="#DEB63D" />
<rect x="26" y="26" width="2" height="2" fill="#422623" />
<rect x="28" y="26" width="2" height="2" fill="#1FCA30" />
<rect x="30" y="26" width="2" height="2" fill="#34A317" />
<rect x="32" y="26" width="2" height="2" fill="#34A317" />
<rect x="34" y="26" width="2" height="2" fill="#34A317" />
<rect x="36" y="26" width="2" height="2" fill="#1FCA30" />
<rect x="38" y="26" width="2" height="2" fill="#422623" />
<rect x="40" y="26" width="2" height="2" fill="#DEB63D" />
<rect x="42" y="26" width="2" height="2" fill="#72452A" />
<rect x="22" y="28" width="2" height="2" fill="#72452A" />
<rect x="24" y="28" width="2" height="2" fill="#DEB63D" />
<rect x="26" y="28" width="2" height="2" fill="#72452A" />
<rect x="28" y="28" width="2" height="2" fill="#1FCA30" />
<rect x="30" y="28" width="2" height="2" fill="#34A317" />
<rect x="32" y="28" width="2" height="2" fill="#34A317" />
<rect x="34" y="28" width="2" height="2" fill="#34A317" />
<rect x="36" y="28" width="2" height="2" fill="#1FCA30" />
<rect x="38" y="28" width="2" height="2" fill="#72452A" />
<rect x="40" y="28" width="2" height="2" fill="#DEB63D" />
<rect x="42" y="28" width="2" height="2" fill="#72452A" />
<rect x="22" y="30" width="2" height="2" fill="#72452A" />
<rect x="24" y="30" width="2" height="2" fill="#DEB63D" />
<rect x="26" y="30" width="2" height="2" fill="#B88430" />
<rect x="28" y="30" width="2" height="2" fill="#72452A" />
<rect x="30" y="30" width="2" height="2" fill="#72452A" />
<rect x="32" y="30" width="2" height="2" fill="#72452A" />
<rect x="34" y="30" width="2" height="2" fill="#72452A" />
<rect x="36" y="30" width="2" height="2" fill="#72452A" />
<rect x="38" y="30" width="2" height="2" fill="#B88430" />
<rect x="40" y="30" width="2" height="2" fill="#DEB63D" />
<rect x="42" y="30" width="2" height="2" fill="#72452A" />
<rect x="22" y="32" width="2" height="2" fill="#72452A" />
<rect x="24" y="32" width="2" height="2" fill="#DEB63D" />
<rect x="26" y="32" width="2" height="2" fill="#DEB63D" />
<rect x="28" y="32" width="2" height="2" fill="#EADB83" />
<rect x="30" y="32" width="2" height="2" fill="#EADB83" />
<rect x="32" y="32" width="2" height="2" fill="#EADB83" />
<rect x="34" y="32" width="2" height="2" fill="#EADB83" />
<rect x="36" y="32" width="2" height="2" fill="#EADB83" />
<rect x="38" y="32" width="2" height="2" fill="#DEB63D" />
<rect x="40" y="32" width="2" height="2" fill="#DEB63D" />
<rect x="42" y="32" width="2" height="2" fill="#72452A" />
<rect x="22" y="34" width="2" height="2" fill="#422623" />
<rect x="24" y="34" width="2" height="2" fill="#72452A" />
<rect x="26" y="34" width="2" height="2" fill="#B88430" />
<rect x="28" y="34" width="2" height="2" fill="#B88430" />
<rect x="30" y="34" width="2" height="2" fill="#B88430" />
<rect x="32" y="34" width="2" height="2" fill="#B88430" />
<rect x="34" y="34" width="2" height="2" fill="#B88430" />
<rect x="36" y="34" width="2" height="2" fill="#B88430" />
<rect x="38" y="34" width="2" height="2" fill="#B88430" />
<rect x="40" y="34" width="2" height="2" fill="#72452A" />
<rect x="42" y="34" width="2" height="2" fill="#422623" />
<rect x="22" y="36" width="2" height="2" fill="#422623" />
<rect x="24" y="36" width="2" height="2" fill="#DEB63D" />
<rect x="26" y="36" width="2" height="2" fill="#EADB83" />
<rect x="28" y="36" width="2" height="2" fill="#EADB83" />
<rect x="30" y="36" width="2" height="2" fill="#DEB63D" />
<rect x="32" y="36" width="2" height="2" fill="#DEB63D" />
<rect x="34" y="36" width="2" height="2" fill="#EADB83" />
<rect x="36" y="36" width="2" height="2" fill="#72452A" />
<rect x="38" y="36" width="2" height="2" fill="#DEB63D" />
<rect x="40" y="36" width="2" height="2" fill="#DEB63D" />
<rect x="42" y="36" width="2" height="2" fill="#422623" />
<rect x="22" y="38" width="2" height="2" fill="#72452A" />
<rect x="24" y="38" width="2" height="2" fill="#EADB83" />
<rect x="26" y="38" width="2" height="2" fill="#DEB63D" />
<rect x="28" y="38" width="2" height="2" fill="#EE4853" />
<rect x="30" y="38" width="2" height="2" fill="#B88430" />
<rect x="32" y="38" width="2" height="2" fill="#EADB83" />
<rect x="34" y="38" width="2" height="2" fill="#72452A" />
<rect x="36" y="38" width="2" height="2" fill="#72452A" />
<rect x="38" y="38" width="2" height="2" fill="#1A102E" />
<rect x="40" y="38" width="2" height="2" fill="#DEB63D" />
<rect x="42" y="38" width="2" height="2" fill="#422623" />
<rect x="22" y="40" width="2" height="2" fill="#72452A" />
<rect x="24" y="40" width="2" height="2" fill="#DEB63D" />
<rect x="26" y="40" width="2" height="2" fill="#DEB63D" />
<rect x="28" y="40" width="2" height="2" fill="#BA1111" />
<rect x="30" y="40" width="2" height="2" fill="#B88430" />
<rect x="32" y="40" width="2" height="2" fill="#DEB63D" />
<rect x="34" y="40" width="2" height="2" fill="#B88430" />
<rect x="36" y="40" width="2" height="2" fill="#1A102E" />
<rect x="38" y="40" width="2" height="2" fill="#DEB63D" />
<rect x="40" y="40" width="2" height="2" fill="#B88430" />
<rect x="42" y="40" width="2" height="2" fill="#422623" />
<rect x="24" y="42" width="2" height="2" fill="#72452A" />
<rect x="26" y="42" width="2" height="2" fill="#DEB63D" />
<rect x="28" y="42" width="2" height="2" fill="#DEB63D" />
<rect x="30" y="42" width="2" height="2" fill="#DEB63D" />
<rect x="32" y="42" width="2" height="2" fill="#DEB63D" />
<rect x="34" y="42" width="2" height="2" fill="#DEB63D" />
<rect x="36" y="42" width="2" height="2" fill="#DEB63D" />
<rect x="38" y="42" width="2" height="2" fill="#B88430" />
<rect x="40" y="42" width="2" height="2" fill="#422623" />
<rect x="24" y="44" width="2" height="2" fill="#203440" />
<rect x="26" y="44" width="2" height="2" fill="#475766" />
<rect x="28" y="44" width="2" height="2" fill="#203440" />
<rect x="30" y="44" width="2" height="2" fill="#203440" />
<rect x="32" y="44" width="2" height="2" fill="#203440" />
<rect x="34" y="44" width="2" height="2" fill="#1A102E" />
<rect x="36" y="44" width="2" height="2" fill="#1A102E" />
<rect x="38" y="44" width="2" height="2" fill="#1A102E" />
<rect x="40" y="44" width="2" height="2" fill="#1A102E" />
<rect x="24" y="46" width="2" height="2" fill="#203440" />
<rect x="26" y="46" width="2" height="2" fill="#AFBBC6" />
<rect x="28" y="46" width="2" height="2" fill="#6F7F8F" />
<rect x="30" y="46" width="2" height="2" fill="#6F7F8F" />
<rect x="32" y="46" width="2" height="2" fill="#6F7F8F" />
<rect x="34" y="46" width="2" height="2" fill="#6F7F8F" />
<rect x="36" y="46" width="2" height="2" fill="#6F7F8F" />
<rect x="38" y="46" width="2" height="2" fill="#475766" />
<rect x="40" y="46" width="2" height="2" fill="#1A102E" />
<rect x="26" y="48" width="2" height="2" fill="#203440" />
<rect x="28" y="48" width="2" height="2" fill="#1A102E" />
<rect x="30" y="48" width="2" height="2" fill="#1A102E" />
<rect x="32" y="48" width="2" height="2" fill="#1A102E" />
<rect x="34" y="48" width="2" height="2" fill="#1A102E" />
<rect x="36" y="48" width="2" height="2" fill="#1A102E" />
<rect x="38" y="48" width="2" height="2" fill="#1A102E" />
</svg>