<?xml version="1.0" encoding="UTF-8" ?>
<svg version="1.1" width="64" height="64" xmlns="http://www.w3.org/2000/svg" shape-rendering="crispEdges">
<rect x="26" y="14" width="2" height="2" fill="#616161" />
<rect x="26" y="16" width="2" height="2" fill="#616161" />
<rect x="26" y="18" width="2" height="2" fill="#1B2119" />
<rect x="26" y="20" width="2" height="2" fill="#1B2119" />
<rect x="26" y="22" width="2" height="2" fill="#1B2119" />
<rect x="26" y="24" width="2" height="2" fill="#1B2119" />
<rect x="26" y="26" width="2" height="2" fill="#1B2119" />
<rect x="28" y="26" width="2" height="2" fill="#1B2119" />
<rect x="30" y="26" width="2" height="2" fill="#1B2119" />
<rect x="32" y="26" width="2" height="2" fill="#1B2119" />
<rect x="34" y="26" width="2" height="2" fill="#1B2119" />
<rect x="36" y="26" width="2" height="2" fill="#1B2119" />
<rect x="24" y="28" width="2" height="2" fill="#1B2119" />
<rect x="26" y="28" width="2" height="2" fill="#628D53" />
<rect x="28" y="28" width="2" height="2" fill="#628D53" />
<rect x="30" y="28" width="2" height="2" fill="#628D53" />
<rect x="32" y="28" width="2" height="2" fill="#628D53" />
<rect x="34" y="28" width="2" height="2" fill="#628D53" />
<rect x="36" y="28" width="2" height="2" fill="#628D53" />
<rect x="38" y="28" width="2" height="2" fill="#1B2119" />
<rect x="24" y="30" width="2" height="2" fill="#1B2119" />
<rect x="26" y="30" width="2" height="2" fill="#0E2613" />
<rect x="28" y="30" width="2" height="2" fill="#0D4318" />
<rect x="30" y="30" width="2" height="2" fill="#0D4318" />
<rect x="32" y="30" width="2" height="2" fill="#0D4318" />
<rect x="34" y="30" width="2" height="2" fill="#0D4318" />
<rect x="36" y="30" width="2" height="2" fill="#0E2613" />
<rect x="38" y="30" width="2" height="2" fill="#1B2119" />
<rect x="24" y="32" width="2" height="2" fill="#1B2119" />
<rect x="26" y="32" width="2" height="2" fill="#0D4318" />
<rect x="28" y="32" width="2" height="2" fill="#02C013" />
<rect x="30" y="32" width="2" height="2" fill="#02C013" />
<rect x="32" y="32" width="2" height="2" fill="#02C013" />
<rect x="34" y="32" width="2" height="2" fill="#02C013" />
<rect x="36" y="32" width="2" height="2" fill="#0D4318" />
<rect x="38" y="32" width="2" height="2" fill="#1B2119" />
<rect x="40" y="32" width="2" height="2" fill="#A40202" />
<rect x="24" y="34" width="2" height="2" fill="#1B2119" />
<rect x="26" y="34" width="2" height="2" fill="#0E2613" />
<rect x="28" y="34" width="2" height="2" fill="#0D4318" />
<rect x="30" y="34" width="2" height="2" fill="#0D4318" />
<rect x="32" y="34" width="2" height="2" fill="#0D4318" />
<rect x="34" y="34" width="2" height="2" fill="#0D4318" />
<rect x="36" y="34" width="2" height="2" fill="#0E2613" />
<rect x="38" y="34" width="2" height="2" fill="#1B2119" />
<rect x="40" y="34" width="2" height="2" fill="#7B0101" />
<rect x="24" y="36" width="2" height="2" fill="#1B2119" />
<rect x="26" y="36" width="2" height="2" fill="#6A8060" />
<rect x="28" y="36" width="2" height="2" fill="#6A8060" />
<rect x="30" y="36" width="2" height="2" fill="#6A8060" />
<rect x="32" y="36" width="2" height="2" fill="#6A8060" />
<rect x="34" y="36" width="2" height="2" fill="#6A8060" />
<rect x="36" y="36" width="2" height="2" fill="#6A8060" />
<rect x="38" y="36" width="2" height="2" fill="#1B2119" />
<rect x="24" y="38" width="2" height="2" fill="#1B2119" />
<rect x="26" y="38" width="2" height="2" fill="#607458" />
<rect x="28" y="38" width="2" height="2" fill="#1B2119" />
<rect x="30" y="38" width="2" height="2" fill="#5E7256" />
<rect x="32" y="38" width="2" height="2" fill="#5E7256" />
<rect x="34" y="38" width="2" height="2" fill="#253F2B" />
<rect x="36" y="38" width="2" height="2" fill="#607458" />
<rect x="38" y="38" width="2" height="2" fill="#0D4318" />
<rect x="24" y="40" width="2" height="2" fill="#1B2119" />
<rect x="26" y="40" width="2" height="2" fill="#5E7256" />
<rect x="28" y="40" width="2" height="2" fill="#5E7256" />
<rect x="30" y="40" width="2" height="2" fill="#5E7256" />
<rect x="32" y="40" width="2" height="2" fill="#253F2B" />
<rect x="34" y="40" width="2" height="2" fill="#1B2119" />
<rect x="36" y="40" width="2" height="2" fill="#253F2B" />
<rect x="38" y="40" width="2" height="2" fill="#1B2119" />
<rect x="24" y="42" width="2" height="2" fill="#1B2119" />
<rect x="26" y="42" width="2" height="2" fill="#557A48" />
<rect x="28" y="42" width="2" height="2" fill="#2F0B0B" />
<rect x="30" y="42" width="2" height="2" fill="#5E7256" />
<rect x="32" y="42" width="2" height="2" fill="#5E7256" />
<rect x="34" y="42" width="2" height="2" fill="#253F2B" />
<rect x="36" y="42" width="2" height="2" fill="#5E7256" />
<rect x="38" y="42" width="2" height="2" fill="#0D4318" />
<rect x="24" y="44" width="2" height="2" fill="#1B2119" />
<rect x="26" y="44" width="2" height="2" fill="#5B7153" />
<rect x="28" y="44" width="2" height="2" fill="#5B7153" />
<rect x="30" y="44" width="2" height="2" fill="#5B7153" />
<rect x="32" y="44" width="2" height="2" fill="#5B7153" />
<rect x="34" y="44" width="2" height="2" fill="#5B7153" />
<rect x="36" y="44" width="2" height="2" fill="#5B7153" />
<rect x="38" y="44" width="2" height="2" fill="#1B2119" />
<rect x="24" y="46" width="2" height="2" fill="#1B2119" />
<rect x="26" y="46" width="2" height="2" fill="#566B4F" />
<rect x="28" y="46" width="2" height="2" fill="#566B4F" />
<rect x="30" y="46" width="2" height="2" fill="#566B4F" />
<rect x="32" y="46" width="2" height="2" fill="#566B4F" />
<rect x="34" y="46" width="2" height="2" fill="#566B4F" />
<rect x="36" y="46" width="2" height="2" fill="#566B4F" />
<rect x="38" y="46" width="2" height="2" fill="#1B2119" />
<rect x="24" y="48" width="2" height="2" fill="#1B2119" />
<rect x="26" y="48" width="2" height="2" fill="#506349" />
<rect x="28" y="48" width="2" height="2" fill="#506349" />
<rect x="30" y="48" width="2" height="2" fill="#506349" />
<rect x="32" y="48" width="2" height="2" fill="#506349" />
<rect x="34" y="48" width="2" height="2" fill="#506349" />
<rect x="36" y="48" width="2" height="2" fill="#506349" />
<rect x="38" y="48" width="2" height="2" fill="#1B2119" />
<rect x="26" y="50" width="2" height="2" fill="#1B2119" />
<rect x="28" y="50" width="2" height="2" fill="#1B2119" />
<rect x="30" y="50" width="2" height="2" fill="#1B2119" />
<rect x="32" y="50" width="2" height="2" fill="#1B2119" />
<rect x="34" y="50" width="2" height="2" fill="#1B2119" />
<rect x="36" y="50" width="2" height="2" fill="#1B2119" />
</svg>