<?xml version="1.0" encoding="utf-8"?><svg version="1.1" id="Layer_1" xmlns="http://www.w3.org/2000/svg" xmlns:xlink="http://www.w3.org/1999/xlink" x="0px" y="0px" viewBox="0 0 122.88 122.88" style="enable-background:new 0 0 122.88 122.88" xml:space="preserve"><style type="text/css">.st0{fill-rule:evenodd;clip-rule:evenodd;}</style><g><path class="st0" d="M86.71,104.87c-16.58,8.49-33.27,8.72-50.08-0.02L54.62,74.2c4.09,2.43,8.89,2.45,14.39,0.01L86.71,104.87 L86.71,104.87z M61.44,0c16.97,0,32.33,6.88,43.44,18c11.12,11.12,18,26.48,18,43.44c0,16.97-6.88,32.33-18,43.44 c-11.12,11.12-26.48,18-43.44,18S29.11,116,18,104.88C6.88,93.77,0,78.41,0,61.44C0,44.47,6.88,29.11,18,18 C29.11,6.88,44.47,0,61.44,0L61.44,0z M101.53,21.35C91.27,11.09,77.1,4.74,61.44,4.74c-15.66,0-29.83,6.35-40.09,16.61 C11.09,31.61,4.74,45.78,4.74,61.44c0,15.66,6.35,29.83,16.61,40.09c10.26,10.26,24.43,16.61,40.09,16.61 c15.66,0,29.83-6.35,40.09-16.61c10.26-10.26,16.61-24.43,16.61-40.09C118.14,45.78,111.79,31.61,101.53,21.35L101.53,21.35z M86.45,17.73c15.64,10.11,24.19,24.45,25.02,43.38l-35.55-0.25c0.06-4.76-2.32-8.92-7.18-12.46L86.45,17.73L86.45,17.73z M61.5,52.41c5.33,0,9.65,4.32,9.65,9.65c0,5.33-4.32,9.65-9.65,9.65c-5.33,0-9.65-4.32-9.65-9.65 C51.85,56.73,56.17,52.41,61.5,52.41L61.5,52.41z M11.53,61.33c0.93-18.6,9.08-33.17,25.06-43.36l17.56,30.91 c-4.15,2.33-6.56,6.47-7.2,12.45H11.53L11.53,61.33z"/></g></svg>